<svg xmlns="http://www.w3.org/2000/svg" viewBox="0 0 1024 1024"><path fill-rule="evenodd" d="M621.03 217.328L814.78 134.57L889.942 102.514C901.166 97.7777 913.208 92.3787 924.513 88.0539C934.115 91.9491 947.1 98.9319 956.5 103.493C979.104 114.459 1001.42 126.327 1024 137.357L1024 141.124L1024 778.713L641.979 950.057L531.852 999.534C519.938 1004.78 508.064 1010.11 496.229 1015.52C491.568 1017.65 482.386 1021.53 478.349 1024L476.398 1024L476.119 1024C473.145 1021.75 466.38 1018.27 462.721 1016.24C455.203 1012.06 447.727 1007.82 440.292 1003.5C407.521 984.503 374.623 965.725 341.599 947.169L0 755.697L0 596.128L0 594.004C2.9198 592.359 11.0489 588.995 14.4776 587.467L44.0902 574.207L138.255 531.762C137.795 527.808 137.759 519.157 138.413 515.215C138.663 513.706 139.532 513.453 140.595 512.883C147.158 509.537 155.787 505.986 162.682 502.95L206.697 483.724L348.066 422.12C351.299 418.815 361.551 329.579 365.236 327.051C369.266 325.178 373.602 323.357 377.724 321.66C427.348 301.237 476.364 278.334 526.027 258.106C526.804 260.328 526.601 279.874 526.896 284.322C532.684 287.524 561.101 303.664 564.941 304.362C583.625 296.051 602.46 288.083 621.435 280.462L621.03 217.328Z M640.646 0L642.908 0C659.742 10.4548 679.06 19.2473 695.63 29.8718C694.835 40.5122 695.711 56.0971 695.509 67.1922C694.955 97.6262 696.341 129.601 695.476 159.913C670.965 171.322 645.142 180.86 620.572 192.061C621.32 198.843 621.042 210.274 621.03 217.328L621.435 280.462C602.46 288.083 583.625 296.051 564.941 304.362C561.101 303.664 532.684 287.524 526.896 284.322C526.601 279.874 526.804 260.328 526.027 258.106C527.182 256.105 526.431 235.054 526.14 231.424C505.164 239.888 483.743 250.619 463.193 258.728C459.951 258.356 415.736 232.625 409.512 229.101C408.072 195.469 409.685 161.13 408.839 127.42C408.617 118.58 408.425 108.483 409.023 99.7175C415.342 96.1636 426.3 91.7252 433.231 88.7271L474.881 70.88L591.292 21.4449L620.228 9.27463C626.676 6.57539 634.645 3.4077 640.646 0Z M807.515 370.988C808.988 372.558 808.404 401.695 808.404 405.724L808.412 471.473L808.426 670.894C828.433 662.006 849.559 652.27 869.838 644.041C870.131 667.299 870.196 690.559 870.033 713.818C840.604 726.197 811.361 739.017 782.315 752.271L672.986 800.582L672.935 771.25C672.971 757.606 672.823 743.962 672.491 730.323C692.896 721.074 714.638 712.766 734.571 702.976L734.475 563.767L734.422 520.703C734.414 512.22 734.144 501.972 734.875 493.671C716.19 508.358 697.759 525.042 679.319 540.333C673.303 520.154 668.448 498.932 662.615 478.456C683.437 461.626 702.931 442.94 722.363 424.479C732.302 415.037 743.836 402.374 754.552 394.133C757.301 392.02 771.144 386.363 775.041 384.711L807.515 370.988Z"/></svg>