<svg xmlns="http://www.w3.org/2000/svg" viewBox="0 0 1024 1024"><path d="M642.908 0C659.742 10.4548 679.06 19.2476 695.63 29.8721C694.835 40.5125 695.711 56.0974 695.509 67.1924C694.955 97.6263 696.341 129.601 695.476 159.913C670.965 171.322 645.142 180.86 620.572 192.061C621.32 198.843 621.042 210.274 621.03 217.328L814.78 134.57L889.942 102.514C901.166 97.7774 913.208 92.3784 924.513 88.0537C934.115 91.9489 947.1 98.9321 956.5 103.493C979.104 114.459 1001.42 126.327 1024 137.357V778.713L641.979 950.057L531.852 999.534C519.938 1004.78 508.064 1010.11 496.229 1015.52C491.568 1017.65 482.386 1021.53 478.349 1024H476.119C474.632 1022.87 472.197 1021.44 469.677 1020.04C468.416 1019.33 467.135 1018.64 465.939 1017.99C464.744 1017.35 463.635 1016.75 462.721 1016.24C455.203 1012.06 447.727 1007.82 440.292 1003.5C407.521 984.503 374.623 965.725 341.599 947.169L0 755.697V594.004C0.182611 593.901 0.385508 593.791 0.606445 593.676C1.26861 593.33 2.09232 592.932 3.01172 592.504C5.46436 591.363 8.59982 590.013 11.1797 588.901C12.4695 588.345 13.6204 587.849 14.4775 587.467L44.0898 574.207L138.255 531.762C137.795 527.808 137.759 519.157 138.413 515.215C138.663 513.706 139.532 513.453 140.595 512.883C141.005 512.674 141.423 512.463 141.849 512.253C148.23 509.095 156.218 505.796 162.682 502.95L206.697 483.724L348.066 422.12L348.143 422.027C348.691 421.267 349.426 418.23 350.286 413.677C350.532 412.376 350.788 410.953 351.053 409.423C355.426 384.179 362.22 330.12 365.148 327.126C365.178 327.096 365.208 327.071 365.236 327.051L366.761 326.352C370.347 324.725 374.117 323.145 377.724 321.66C425.797 301.875 473.3 279.763 521.373 260.01C522.924 259.373 524.475 258.739 526.027 258.106L526.08 257.998C527.159 255.449 526.426 234.997 526.14 231.424C505.164 239.888 483.743 250.62 463.193 258.729C459.951 258.357 415.736 232.625 409.512 229.101C408.072 195.469 409.685 161.13 408.839 127.42C408.672 120.79 408.523 113.453 408.711 106.501C408.742 105.342 408.782 104.194 408.834 103.062C408.886 101.929 408.949 100.813 409.023 99.7178L409.629 99.3818C416.023 95.8877 426.517 91.6319 433.231 88.7275L474.881 70.8799L591.292 21.4453L620.229 9.27441C626.676 6.57522 634.646 3.40762 640.646 0H642.908ZM775.041 384.711C771.144 386.363 757.301 392.02 754.552 394.133C743.836 402.374 732.302 415.038 722.363 424.479C702.931 442.94 683.437 461.626 662.615 478.456C668.448 498.932 673.303 520.154 679.319 540.333C697.759 525.042 716.19 508.358 734.875 493.671C734.144 501.972 734.414 512.22 734.422 520.703L734.475 563.767L734.571 702.976C714.638 712.766 692.896 721.074 672.491 730.323C672.823 743.962 672.971 757.606 672.935 771.25L672.986 800.582L782.315 752.271C811.361 739.018 840.604 726.197 870.033 713.818C870.196 690.559 870.131 667.299 869.838 644.041C849.559 652.27 828.433 662.006 808.426 670.894L808.412 471.473L808.404 405.724C808.404 401.693 808.988 372.558 807.515 370.988L775.041 384.711Z"/></svg>